<svg width="179" height="178" viewBox="0 0 179 178" fill="none" xmlns="http://www.w3.org/2000/svg">
<path d="M1.27006 24.1334V24.3873C1.27006 43.591 1.27751 62.7983 1.27751 82.002C1.27751 85.0483 2.89949 86.661 5.94209 86.661H33.896C48.6616 86.661 63.4235 86.6536 78.1891 86.661C78.8155 86.661 79.4494 86.5789 80.0646 86.9074C82.052 87.9938 82.4398 90.3719 80.8066 92.0294C75.9444 96.9423 71.0561 101.829 66.1753 106.72C55.3285 117.591 44.478 128.454 33.6313 139.333C26.6848 146.295 19.7457 153.262 12.8029 160.231C9.80875 163.24 4.89434 168.067 1.97478 171.14C0.0321351 173.189 0.703293 176.247 3.21643 177.453C4.95026 178.289 6.55733 177.878 8.2688 176.157C17.9373 166.466 29.4738 154.904 39.1348 145.213C46.0105 138.314 52.9161 131.448 59.7619 124.52C64.3892 119.831 69.9189 117.811 76.418 118.8C85.68 120.204 92.3655 128.122 92.3655 137.552C92.3655 149.487 92.373 161.426 92.3655 173.361C92.3655 174.197 92.4177 175.011 92.8391 175.765C93.7116 177.307 95.08 177.852 96.7878 177.852C109.633 177.834 122.478 177.841 135.327 177.841V177.834C141.234 177.834 147.136 177.822 153.042 177.822H156.029C168.013 177.072 177.581 167.377 178.151 155.315C178.144 154.542 178.144 153.766 178.144 152.993V152.959C178.125 134.028 178.136 115.101 178.133 96.1695C178.133 95.6058 178.107 95.0458 177.916 94.5008C177.316 92.8059 175.866 91.8726 173.763 91.8726H100.39C98.6372 91.8726 97.4254 91.1857 96.9518 89.8492C96.4186 88.3522 96.9779 87.2024 98.0667 86.1123C108.071 76.1222 118.049 66.1097 128.034 56.101C138.527 45.5845 149.015 35.0755 159.508 24.5665C164.523 19.5341 171.798 12.2506 176.794 7.19959C178.588 5.38524 178.591 2.93999 176.913 1.27125C175.291 -0.345236 172.901 -0.240709 171.108 1.5363C169.93 2.69733 166.514 6.12442 165.351 7.29665C157.166 15.5097 148.978 23.7265 140.794 31.9396C133.635 39.1223 126.528 46.3573 119.294 53.4578C114.04 58.6097 107.739 60.2299 100.636 58.1841C92.634 55.8882 87.0372 48.4927 87.1305 39.9025C87.2572 28.3482 87.1677 16.7827 87.1566 5.22099C87.1566 2.19335 85.5532 0.5694 82.5964 0.5694C63.4049 0.5694 44.217 0.561932 25.033 0.561932H24.7906L21.3863 0.826992C11.1548 2.35761 3.06355 10.4661 1.53852 20.7213L1.27379 24.1222L1.27006 24.1334Z" fill="#FEFDFE"/>
</svg>
