<svg width="248" height="123" viewBox="0 0 248 123" fill="none" xmlns="http://www.w3.org/2000/svg">
<path d="M21.1443 43.4167V43.4652C21.1443 47.1019 21.1443 50.7387 21.1443 54.3754C21.1443 54.9527 21.4479 55.2571 22.0186 55.2571H27.2593C30.0275 55.2571 32.7944 55.2571 35.5626 55.2571C35.6806 55.2571 35.7986 55.2413 35.9141 55.3043C36.2864 55.5103 36.359 55.9603 36.0529 56.2738C35.141 57.204 34.2252 58.129 33.3106 59.0552C31.278 61.1137 29.2427 63.1708 27.21 65.2306C25.9076 66.5491 24.6065 67.8689 23.3054 69.1874C22.7438 69.7568 21.8228 70.6713 21.2753 71.2538C20.9108 71.6421 21.0367 72.2207 21.5075 72.449C21.8331 72.6077 22.1341 72.529 22.4545 72.2036C24.2667 70.3682 26.4291 68.1785 28.2412 66.3444C29.5306 65.0377 30.8252 63.7376 32.1082 62.4256C32.976 61.5374 34.0124 61.1556 35.2305 61.3432C36.9674 61.6083 38.2205 63.1091 38.2205 64.8947C38.2205 67.1552 38.2205 69.4157 38.2205 71.6762C38.2205 71.835 38.2296 71.9885 38.31 72.1315C38.4734 72.424 38.7303 72.5264 39.0507 72.5264C41.4583 72.5224 43.8671 72.5238 46.2747 72.5238C47.3825 72.5238 48.4877 72.5198 49.5955 72.5198H50.1559C52.4026 72.3781 54.1966 70.5414 54.303 68.2573C54.303 68.1103 54.303 67.9647 54.303 67.8178V67.8112C54.2991 64.2269 54.303 60.6413 54.3004 57.0571C54.3004 56.9495 54.2952 56.8445 54.2602 56.7409C54.1474 56.4195 53.8762 56.2437 53.4819 56.2437H39.7278C39.3996 56.2437 39.1726 56.1138 39.0831 55.8606C38.9832 55.5772 39.0883 55.3594 39.292 55.1521C41.1677 53.2603 43.0382 51.3645 44.9101 49.4687C46.8766 47.4772 48.8432 45.4869 50.8097 43.498C51.7502 42.5455 53.1135 41.1653 54.0501 40.2089C54.386 39.8652 54.3873 39.4021 54.0721 39.0859C53.7686 38.7789 53.3197 38.7999 52.9838 39.137C52.7633 39.3575 52.1224 40.0056 51.9045 40.2286C50.3699 41.7833 48.8354 43.3392 47.3008 44.8952C45.9582 46.2557 44.6273 47.6254 43.2704 48.9702C42.2859 49.9463 41.1041 50.252 39.7732 49.8649C38.2724 49.4294 37.2243 48.0295 37.2411 46.4027C37.2645 44.2143 37.2476 42.0247 37.2463 39.835C37.2463 39.2617 36.9454 38.9547 36.3915 38.9547C32.7944 38.9547 29.196 38.9547 25.6002 38.9547H25.5548L24.9166 39.0045C22.998 39.2945 21.4816 40.8295 21.1962 42.7725L21.1469 43.4167H21.1443Z" fill="#FEFDFE"/>
<path d="M99.4151 72.5275L91.9757 63.7794C90.8576 62.4661 89.4735 61.7433 88.0777 61.7433C85.8828 61.7433 84.1628 63.5315 84.1628 65.8143V72.5275H76.752V43.2433C76.752 40.6916 78.8054 38.6147 81.3284 38.6147H84.1628V56.5518L99.4138 38.6147H105.782L91.3648 55.5718L105.782 72.5289H99.4138L99.4151 72.5275Z" fill="#FEFDFE"/>
<path d="M135.074 49.8241H108.175V50.2072C108.175 51.3905 109.127 52.3535 110.296 52.3535H128.582C130.6 52.3535 132.238 54.0118 132.238 56.0506V59.9104H112.749C110.226 59.9104 108.174 61.9859 108.174 64.5377V67.8989C108.174 70.4507 110.226 72.5262 112.749 72.5262H139.649V54.45C139.649 51.8983 137.597 49.8228 135.072 49.8228L135.074 49.8241ZM132.239 69.9994H119.244C117.227 69.9994 115.585 68.3397 115.585 66.2983V66.1422C115.585 64.1008 117.227 62.4412 119.244 62.4412H132.239V69.998V69.9994Z" fill="#FEFDFE"/>
<path d="M144.877 38.6147H142.043V72.5275H149.452V43.2433C149.452 40.6916 147.4 38.6147 144.877 38.6147Z" fill="#FEFDFE"/>
<path d="M154.739 49.8242H151.904V72.5277H159.315V54.4515C159.315 51.8997 157.263 49.8242 154.739 49.8242Z" fill="#FEFDFE"/>
<path d="M193.125 54.4516V72.5304H187.838C186.668 72.5304 185.717 71.5674 185.717 70.3841V56.0535C185.716 54.0135 184.075 52.3565 182.059 52.3565H169.06V72.5304H161.65V49.8257H188.549C191.073 49.8257 193.125 51.9012 193.125 54.453V54.4516Z" fill="#FEFDFE"/>
<path d="M200.035 50.4722C197.512 50.4722 195.46 52.5477 195.46 55.0994V68.5496C195.46 71.1014 197.512 73.1769 200.035 73.1769H219.527V82.2399C219.527 83.4233 220.477 84.385 221.646 84.385H226.936V50.4722H200.035ZM219.527 70.6461H206.526C204.509 70.6461 202.868 68.9865 202.868 66.9451V56.7C202.868 54.6599 204.509 53.0003 206.526 53.0003H219.527V70.6461Z" fill="#FEFDFE"/>
<path d="M159.315 42.6347L151.904 42.6321V38.6162H154.941C155.137 38.6162 155.337 38.6306 155.534 38.6621C157.382 38.9534 158.856 40.5684 159.314 42.6347H159.315Z" fill="#FEFDFE"/>
</svg>
