<svg width="25" height="24" viewBox="0 0 25 24" fill="none" xmlns="http://www.w3.org/2000/svg">
<path d="M24.6367 12C24.6367 5.37188 19.2648 0 12.6367 0C6.00859 0 0.636719 5.37188 0.636719 12C0.636719 18.6281 6.00859 24 12.6367 24C12.707 24 12.7773 24 12.8477 23.9953V14.6578H10.2695V11.6531H12.8477V9.44062C12.8477 6.87656 14.4133 5.47969 16.7008 5.47969C17.7977 5.47969 18.7398 5.55938 19.0117 5.59688V8.27813H17.4367C16.1945 8.27813 15.9508 8.86875 15.9508 9.73594V11.6484H18.9273L18.5383 14.6531H15.9508V23.5359C20.9664 22.0969 24.6367 17.4797 24.6367 12Z" fill="#838D95"/>
</svg>
