<svg width="24" height="24" viewBox="0 0 24 24" fill="none" xmlns="http://www.w3.org/2000/svg">
<g clip-path="url(#clip0_101_13699)">
<path d="M14.3178 12C14.3178 13.2686 13.3207 14.2969 12.0906 14.2969C10.8604 14.2969 9.86328 13.2686 9.86328 12C9.86328 10.7314 10.8604 9.70312 12.0906 9.70312C13.3207 9.70312 14.3178 10.7314 14.3178 12Z" fill="#838D95"/>
<path d="M17.3001 7.93622C17.193 7.63702 17.0222 7.36621 16.8002 7.14392C16.5847 6.91504 16.3223 6.73889 16.032 6.62848C15.7965 6.53418 15.4428 6.42194 14.7914 6.39136C14.0866 6.35822 13.8754 6.35107 12.0913 6.35107C10.307 6.35107 10.0957 6.35803 9.39116 6.39117C8.7397 6.42194 8.38583 6.53418 8.15057 6.62848C7.86026 6.73889 7.59766 6.91504 7.38228 7.14392C7.16033 7.36621 6.98952 7.63684 6.88228 7.93622C6.79084 8.17902 6.682 8.54395 6.65234 9.21576C6.62021 9.94232 6.61328 10.1602 6.61328 12.0002C6.61328 13.8401 6.62021 14.058 6.65234 14.7847C6.682 15.4565 6.79084 15.8213 6.88228 16.0641C6.98952 16.3635 7.16016 16.6341 7.3821 16.8564C7.59766 17.0853 7.86009 17.2614 8.15039 17.3718C8.38583 17.4663 8.7397 17.5786 9.39116 17.6091C10.0957 17.6423 10.3068 17.6492 12.0911 17.6492C13.8755 17.6492 14.0868 17.6423 14.7912 17.6091C15.4426 17.5786 15.7965 17.4663 16.032 17.3718C16.6147 17.14 17.0753 16.665 17.3001 16.0641C17.3915 15.8213 17.5004 15.4565 17.5302 14.7847C17.5623 14.058 17.5691 13.8401 17.5691 12.0002C17.5691 10.1602 17.5623 9.94232 17.5302 9.21576C17.5005 8.54395 17.3917 8.17902 17.3001 7.93622ZM12.0913 15.5384C10.1962 15.5384 8.65998 13.9543 8.65998 12.0001C8.65998 10.0458 10.1962 8.46173 12.0913 8.46173C13.9862 8.46173 15.5224 10.0458 15.5224 12.0001C15.5224 13.9543 13.9862 15.5384 12.0913 15.5384ZM15.658 9.14874C15.2152 9.14874 14.8562 8.7785 14.8562 8.32184C14.8562 7.86517 15.2152 7.49493 15.658 7.49493C16.1009 7.49493 16.4599 7.86517 16.4599 8.32184C16.4597 8.7785 16.1009 9.14874 15.658 9.14874Z" fill="#838D95"/>
<path d="M12.0914 0C5.66584 0 0.455078 5.3736 0.455078 12C0.455078 18.6264 5.66584 24 12.0914 24C18.517 24 23.7278 18.6264 23.7278 12C23.7278 5.3736 18.517 0 12.0914 0ZM18.733 14.8409C18.7006 15.5744 18.5875 16.0752 18.4224 16.5135C18.0753 17.4391 17.3658 18.1708 16.4682 18.5288C16.0433 18.6991 15.5575 18.8156 14.8464 18.8491C14.1339 18.8826 13.9062 18.8906 12.0916 18.8906C10.2768 18.8906 10.0494 18.8826 9.33665 18.8491C8.62553 18.8156 8.13974 18.6991 7.71484 18.5288C7.26882 18.3558 6.86506 18.0846 6.53125 17.7339C6.19141 17.3899 5.92844 16.9733 5.76065 16.5135C5.59553 16.0754 5.48242 15.5744 5.45011 14.8411C5.41726 14.1061 5.40962 13.8713 5.40962 12C5.40962 10.1287 5.41726 9.89392 5.44993 9.15912C5.48224 8.4256 5.59517 7.9248 5.7603 7.48645C5.92809 7.02667 6.19123 6.61011 6.53125 6.26605C6.86488 5.91541 7.26882 5.64423 7.71467 5.47119C8.13974 5.3009 8.62536 5.18445 9.33665 5.15094C10.0492 5.11743 10.2768 5.10938 12.0914 5.10938C13.9061 5.10938 14.1337 5.11743 14.8462 5.15112C15.5575 5.18445 16.0431 5.3009 16.4682 5.47101C16.9141 5.64404 17.318 5.91541 17.6518 6.26605C17.9917 6.61029 18.2548 7.02667 18.4224 7.48645C18.5877 7.9248 18.7006 8.4256 18.7331 9.15912C18.7656 9.89392 18.7733 10.1287 18.7733 12C18.7733 13.8713 18.7656 14.1061 18.733 14.8409Z" fill="#838D95"/>
</g>
<defs>
<clipPath id="clip0_101_13699">
<rect width="23.2727" height="24" fill="white" transform="translate(0.455078)"/>
</clipPath>
</defs>
</svg>
