<svg width="25" height="24" viewBox="0 0 25 24" fill="none" xmlns="http://www.w3.org/2000/svg">
<path d="M2.05077 3.83721V3.86749C2.05077 6.13647 2.05077 8.40545 2.05077 10.6744C2.05077 11.0346 2.24253 11.2245 2.60311 11.2245H5.91384C7.66262 11.2245 9.41059 11.2245 11.1594 11.2245C11.234 11.2245 11.3085 11.2147 11.3815 11.2539C11.6167 11.3825 11.6625 11.6632 11.4691 11.8588C10.893 12.4392 10.3145 13.0163 9.73675 13.5941C8.45261 14.8784 7.16683 16.1619 5.8827 17.447C5.05993 18.2696 4.23798 19.0931 3.41604 19.9157C3.0612 20.2709 2.47936 20.8414 2.13354 21.2049C1.90326 21.4472 1.98275 21.8081 2.28023 21.9506C2.48592 22.0496 2.67604 22.0005 2.87845 21.7975C4.02328 20.6524 5.38937 19.2862 6.53419 18.1419C7.34876 17.3267 8.16661 16.5155 8.97708 15.697C9.52532 15.1428 10.1801 14.9046 10.9496 15.0217C12.0469 15.187 12.8385 16.1234 12.8385 17.2374C12.8385 18.6478 12.8385 20.0581 12.8385 21.4684C12.8385 21.5675 12.8442 21.6633 12.8951 21.7525C12.9983 21.935 13.1606 21.9989 13.363 21.9989C14.884 21.9964 16.4057 21.9972 17.9267 21.9972C18.6266 21.9972 19.3248 21.9948 20.0246 21.9948H20.3786C21.798 21.9064 22.9313 20.7604 22.9985 19.3353C22.9985 19.2437 22.9985 19.1528 22.9985 19.0611V19.057C22.9961 16.8208 22.9985 14.5837 22.9969 12.3475C22.9969 12.2804 22.9936 12.2149 22.9715 12.1502C22.9002 11.9497 22.7289 11.84 22.4798 11.84H13.7908C13.5834 11.84 13.44 11.759 13.3835 11.601C13.3204 11.4242 13.3867 11.2883 13.5154 11.159C14.7004 9.97867 15.8821 8.79589 17.0646 7.61311C18.3069 6.37057 19.5493 5.12885 20.7916 3.88795C21.3858 3.2937 22.247 2.4326 22.8387 1.83589C23.051 1.62143 23.0518 1.33249 22.8526 1.13522C22.6609 0.943687 22.3773 0.956783 22.1651 1.16715C22.0258 1.30466 21.621 1.70902 21.4833 1.84817C20.5138 2.81813 19.5444 3.78891 18.5749 4.7597C17.7268 5.60852 16.886 6.46307 16.0288 7.30206C15.4068 7.91105 14.6602 8.10177 13.8194 7.8603C12.8713 7.58855 12.2091 6.71517 12.2198 5.70019C12.2345 4.33488 12.2239 2.96874 12.2231 1.60261C12.2231 1.24491 12.033 1.05337 11.683 1.05337C9.41059 1.05337 7.13733 1.05337 4.86571 1.05337H4.83703L4.43384 1.08447C3.22182 1.26537 2.26384 2.22305 2.08355 3.4353L2.05241 3.83721H2.05077Z" fill="#8696BB"/>
</svg>
