<svg width="24" height="24" viewBox="0 0 24 24" fill="none" xmlns="http://www.w3.org/2000/svg">
<path d="M7.50055 5.6L5.00055 7L6.40055 4.5L5.00055 2L7.50055 3.4L10.0005 2L8.60055 4.5L10.0005 7L7.50055 5.6ZM19.5005 15.4L22.0005 14L20.6005 16.5L22.0005 19L19.5005 17.6L17.0005 19L18.4005 16.5L17.0005 14L19.5005 15.4ZM22.0005 2L20.6005 4.5L22.0005 7L19.5005 5.6L17.0005 7L18.4005 4.5L17.0005 2L19.5005 3.4L22.0005 2ZM13.3405 12.78L15.7805 10.34L13.6605 8.22L11.2205 10.66L13.3405 12.78ZM14.3705 7.29L16.7105 9.63C17.1005 10 17.1005 10.65 16.7105 11.04L5.04055 22.71C4.65055 23.1 4.00055 23.1 3.63055 22.71L1.29055 20.37C0.900547 20 0.900547 19.35 1.29055 18.96L12.9605 7.29C13.3505 6.9 14.0005 6.9 14.3705 7.29Z" fill="#EF4423"/>
</svg>
