<svg width="25" height="24" viewBox="0 0 25 24" fill="none" xmlns="http://www.w3.org/2000/svg">
<path d="M12.8184 0C6.19196 0 0.818359 5.3736 0.818359 12C0.818359 18.6264 6.19196 24 12.8184 24C19.4448 24 24.8184 18.6264 24.8184 12C24.8184 5.3736 19.4448 0 12.8184 0ZM18.2974 9.35632C18.3027 9.47443 18.3053 9.59308 18.3053 9.71228C18.3053 13.3519 15.5349 17.5488 10.4686 17.549C8.91309 17.549 7.46564 17.0931 6.2467 16.3118C6.46222 16.3372 6.68158 16.3499 6.90369 16.3499C8.19421 16.3499 9.38184 15.9097 10.3246 15.1708C9.1189 15.1485 8.10229 14.3522 7.75146 13.2578C7.91937 13.29 8.09204 13.3076 8.2691 13.3076C8.52051 13.3076 8.76404 13.2737 8.99548 13.2105C7.73517 12.9582 6.78577 11.8444 6.78577 10.5106C6.78577 10.4982 6.78577 10.487 6.78613 10.4755C7.15729 10.6818 7.58173 10.806 8.03363 10.8199C7.29407 10.3264 6.80792 9.48285 6.80792 8.52722C6.80792 8.02258 6.94434 7.5498 7.18091 7.14276C8.53918 8.80939 10.5691 9.90546 12.8583 10.0206C12.811 9.81885 12.7867 9.60864 12.7867 9.39258C12.7867 7.87207 14.0203 6.63849 15.5413 6.63849C16.3336 6.63849 17.0492 6.97339 17.5518 7.50879C18.1793 7.38501 18.7686 7.15576 19.3008 6.84027C19.0948 7.48315 18.6583 8.02258 18.0896 8.36371C18.6468 8.29706 19.1778 8.14929 19.6713 7.92993C19.3027 8.48236 18.8352 8.96759 18.2974 9.35632Z" fill="#838D95"/>
</svg>
