<svg width="28" height="14" viewBox="0 0 28 14" fill="none" xmlns="http://www.w3.org/2000/svg">
<path fill-rule="evenodd" clip-rule="evenodd" d="M22.3252 10.0099L25.667 6.96135L24.0841 3.80762L22.3252 10.0099Z" fill="#097939"/>
<path fill-rule="evenodd" clip-rule="evenodd" d="M21.1992 10.0099L24.541 6.96135L22.9581 3.80762L21.1992 10.0099Z" fill="#ED752E"/>
<path fill-rule="evenodd" clip-rule="evenodd" d="M5.22939 3.84257L3.82239 8.8534L8.81736 8.8884L10.1894 3.84257H11.4557L9.81066 9.70857C9.74766 9.93257 9.50779 10.1146 9.27516 10.1146H2.87272C2.48446 10.1146 2.25439 9.81123 2.35939 9.4379L3.92832 3.84257H5.22939ZM20.6719 3.80757H21.9382L20.1793 10.1146H18.8773L20.6719 3.80757ZM11.5966 6.43537L17.9283 6.40037L18.3507 5.06873H11.913L12.2999 3.84233L19.1599 3.77933C19.5869 3.77537 19.8412 4.106 19.7287 4.5183L19.0824 6.88057C18.9697 7.29263 18.5317 7.62653 18.1047 7.62653H12.4408L11.773 10.2196H10.541L11.5966 6.43537Z" fill="#747474"/>
</svg>
