<svg width="15" height="15" viewBox="0 0 15 15" fill="none" xmlns="http://www.w3.org/2000/svg">
<path d="M14.9482 7.47409C14.9339 6.96023 14.7772 6.45989 14.4948 6.02955C14.2132 5.6 13.817 5.25636 13.3509 5.03841C13.5283 4.55557 13.5657 4.03295 13.4623 3.52943C13.3581 3.02511 13.1147 2.56057 12.7607 2.1875C12.3868 1.83352 11.9231 1.59091 11.4187 1.48591C10.9152 1.3825 10.3926 1.41989 9.90977 1.59727C9.69261 1.13034 9.34977 0.733409 8.91943 0.451818C8.48909 0.170227 7.98875 0.0127273 7.47409 0C6.96023 0.0135227 6.46148 0.169432 6.03193 0.451818C5.60239 0.734205 5.26114 1.13114 5.04557 1.59727C4.56193 1.41989 4.03773 1.38091 3.53261 1.48591C3.0275 1.58932 2.56216 1.83273 2.1883 2.1875C1.83432 2.56136 1.5925 3.0267 1.48989 3.53023C1.38648 4.03375 1.42625 4.55636 1.60443 5.03841C1.1375 5.25636 0.739773 5.5992 0.456591 6.02875C0.173409 6.4583 0.0151136 6.95943 0 7.47409C0.0159091 7.98875 0.173409 8.48909 0.456591 8.91943C0.739773 9.34898 1.1375 9.69261 1.60443 9.90977C1.42625 10.3918 1.38648 10.9144 1.48989 11.418C1.5933 11.9223 1.83432 12.3868 2.1875 12.7607C2.56136 13.1131 3.02591 13.3549 3.52943 13.4591C4.03295 13.5641 4.55557 13.5259 5.03841 13.3509C5.25636 13.817 5.5992 14.2132 6.02955 14.4956C6.45909 14.7772 6.96023 14.9339 7.47409 14.9482C7.98875 14.9355 8.48909 14.7788 8.91943 14.4972C9.34977 14.2156 9.69261 13.8178 9.90977 13.3517C10.3902 13.5418 10.9168 13.5872 11.4235 13.4822C11.9294 13.3772 12.394 13.1266 12.7599 12.7607C13.1258 12.3948 13.3772 11.9302 13.4822 11.4235C13.5872 10.9168 13.5418 10.3902 13.3509 9.90977C13.817 9.69182 14.2132 9.34898 14.4956 8.91864C14.7772 8.48909 14.9339 7.98795 14.9482 7.47409ZM6.40977 10.5366L3.68216 7.80977L4.71068 6.77409L6.35886 8.42227L9.85886 4.60886L10.9303 5.6L6.40977 10.5366Z" fill="#EF4423"/>
</svg>
